<svg width="88" height="84" viewBox="0 0 88 84" fill="none" xmlns="http://www.w3.org/2000/svg">
<path fill-rule="evenodd" clip-rule="evenodd" d="M66.5078 1C78.9375 1 87 8.6875 87 20.5391V63.4609C87 75.3125 78.9375 83 66.5078 83H21.4922C9.0625 83 1 75.3125 1 63.4609V20.5391C1 8.6875 9.0625 1 21.4922 1H66.5078Z" fill="#ABD9D4"/>
<path fill-rule="evenodd" clip-rule="evenodd" d="M66.5078 1C78.9375 1 87 8.6875 87 20.5391V63.4609C87 75.3125 78.9375 83 66.5078 83H21.4922C9.0625 83 1 75.3125 1 63.4609V20.5391C1 8.6875 9.0625 1 21.4922 1H66.5078Z" stroke="#A4A4A4" stroke-width="0.5"/>
<path fill-rule="evenodd" clip-rule="evenodd" d="M44 77.5333C64.5818 77.5333 81.2667 61.6245 81.2667 42C81.2667 22.3755 64.5818 6.46667 44 6.46667C23.4182 6.46667 6.73334 22.3755 6.73334 42C6.73334 61.6245 23.4182 77.5333 44 77.5333Z" fill="#2A7977"/>
<path fill-rule="evenodd" clip-rule="evenodd" d="M62.6333 42L31.1 57.0333V26.9667L62.6333 42Z" fill="#000414"/>
</svg>
